HIERARCHY
ROOT mixamorig:Hips
{
	OFFSET 0.000000 201.639420 0.000000
	CHANNELS 6 Xposition Yposition Zposition Xrotation Yrotation Zrotation
	JOINT mixamorig:Spine
	{
		OFFSET 0.006200 19.524994 -2.481800
		CHANNELS 3 Xrotation Yrotation Zrotation
		JOINT mixamorig:Spine1
		{
			OFFSET -0.000900 22.835007 -2.825400
			CHANNELS 3 Xrotation Yrotation Zrotation
			JOINT mixamorig:Spine2
			{
				OFFSET -0.020600 26.552490 -3.193300
				CHANNELS 3 Xrotation Yrotation Zrotation
				JOINT mixamorig:Neck
				{
					OFFSET -0.060000 30.701813 1.352200
					CHANNELS 3 Xrotation Yrotation Zrotation
					JOINT mixamorig:Head
					{
						OFFSET -0.087200 22.547607 3.670900
						CHANNELS 3 Xrotation Yrotation Zrotation
						JOINT mixamorig:HeadTop_End
						{
							OFFSET -0.830600 40.355194 7.893500
							CHANNELS 3 Xrotation Yrotation Zrotation
							End Site
							{
								OFFSET 0.000000 30.592346 0.000000
							}
						}
						JOINT mixamorig:RightEye
						{
							OFFSET -6.302100 18.118591 16.197100
							CHANNELS 3 Xrotation Yrotation Zrotation
							End Site
							{
								OFFSET 0.000000 30.592346 0.000000
							}
						}
						JOINT mixamorig:LeftEye
						{
							OFFSET 6.741500 18.382690 16.401899
							CHANNELS 3 Xrotation Yrotation Zrotation
							End Site
							{
								OFFSET 0.000000 30.592346 0.000000
							}
						}
					}
				}
				JOINT mixamorig:LeftShoulder
				{
					OFFSET 11.924900 18.230499 1.425400
					CHANNELS 3 Xrotation Yrotation Zrotation
					JOINT mixamorig:LeftArm
					{
						OFFSET 25.435989 -0.697632 -5.229300
						CHANNELS 3 Xrotation Yrotation Zrotation
						JOINT mixamorig:LeftForeArm
						{
							OFFSET 54.684776 0.000000 0.000000
							CHANNELS 3 Xrotation Yrotation Zrotation
							JOINT mixamorig:LeftHand
							{
								OFFSET 55.098175 0.000000 0.000000
								CHANNELS 3 Xrotation Yrotation Zrotation
								JOINT mixamorig:LeftHandMiddle1
								{
									OFFSET 23.369751 0.000000 0.000000
									CHANNELS 3 Xrotation Yrotation Zrotation
									JOINT mixamorig:LeftHandMiddle2
									{
										OFFSET 6.378677 0.000000 0.000000
										CHANNELS 3 Xrotation Yrotation Zrotation
										JOINT mixamorig:LeftHandMiddle3
										{
											OFFSET 6.148331 0.000000 0.000000
											CHANNELS 3 Xrotation Yrotation Zrotation
											JOINT mixamorig:LeftHandMiddle4
											{
												OFFSET 6.582504 0.000000 0.000000
												CHANNELS 3 Xrotation Yrotation Zrotation
												End Site
												{
													OFFSET -1.168900 6.395691 1.028606
												}
											}
										}
									}
								}
								JOINT mixamorig:LeftHandThumb1
								{
									OFFSET 7.235672 -3.848206 5.434273
									CHANNELS 3 Xrotation Yrotation Zrotation
									JOINT mixamorig:LeftHandThumb2
									{
										OFFSET 6.568451 -3.792297 3.792300
										CHANNELS 3 Xrotation Yrotation Zrotation
										JOINT mixamorig:LeftHandThumb3
										{
											OFFSET 6.063080 -3.500519 3.500518
											CHANNELS 3 Xrotation Yrotation Zrotation
											JOINT mixamorig:LeftHandThumb4
											{
												OFFSET 4.793182 -2.767334 2.767349
												CHANNELS 3 Xrotation Yrotation Zrotation
												End Site
												{
													OFFSET 0.101639 6.054260 1.275483
												}
											}
										}
									}
								}
								JOINT mixamorig:LeftHandIndex1
								{
									OFFSET 23.101074 -0.309540 4.992809
									CHANNELS 3 Xrotation Yrotation Zrotation
									JOINT mixamorig:LeftHandIndex2
									{
										OFFSET 6.226883 0.000000 0.000000
										CHANNELS 3 Xrotation Yrotation Zrotation
										JOINT mixamorig:LeftHandIndex3
										{
											OFFSET 6.094330 0.000000 0.000000
											CHANNELS 3 Xrotation Yrotation Zrotation
											JOINT mixamorig:LeftHandIndex4
											{
												OFFSET 5.482605 0.000000 0.000000
												CHANNELS 3 Xrotation Yrotation Zrotation
												End Site
												{
													OFFSET -1.427902 5.233032 0.797164
												}
											}
										}
									}
								}
								JOINT mixamorig:LeftHandRing1
								{
									OFFSET 22.299240 0.021149 -3.964172
									CHANNELS 3 Xrotation Yrotation Zrotation
									JOINT mixamorig:LeftHandRing2
									{
										OFFSET 6.321869 0.000000 0.000000
										CHANNELS 3 Xrotation Yrotation Zrotation
										JOINT mixamorig:LeftHandRing3
										{
											OFFSET 5.899796 0.000000 0.000000
											CHANNELS 3 Xrotation Yrotation Zrotation
											JOINT mixamorig:LeftHandRing4
											{
												OFFSET 6.517899 0.000000 0.000000
												CHANNELS 3 Xrotation Yrotation Zrotation
												End Site
												{
													OFFSET -1.637299 6.232208 0.980890
												}
											}
										}
									}
								}
								JOINT mixamorig:LeftHandPinky1
								{
									OFFSET 20.463791 -0.302338 -8.562233
									CHANNELS 3 Xrotation Yrotation Zrotation
									JOINT mixamorig:LeftHandPinky2
									{
										OFFSET 6.908646 0.000000 0.000000
										CHANNELS 3 Xrotation Yrotation Zrotation
										JOINT mixamorig:LeftHandPinky3
										{
											OFFSET 4.622849 0.000000 0.000000
											CHANNELS 3 Xrotation Yrotation Zrotation
											JOINT mixamorig:LeftHandPinky4
											{
												OFFSET 5.216080 0.000000 0.000000
												CHANNELS 3 Xrotation Yrotation Zrotation
												End Site
												{
													OFFSET -0.606308 5.116241 0.814926
												}
											}
										}
									}
								}
							}
						}
					}
				}
				JOINT mixamorig:RightShoulder
				{
					OFFSET -12.001300 18.284088 1.348900
					CHANNELS 3 Xrotation Yrotation Zrotation
					JOINT mixamorig:RightArm
					{
						OFFSET -25.308500 -0.751312 -5.164599
						CHANNELS 3 Xrotation Yrotation Zrotation
						JOINT mixamorig:RightForeArm
						{
							OFFSET -54.684429 0.000000 0.000000
							CHANNELS 3 Xrotation Yrotation Zrotation
							JOINT mixamorig:RightHand
							{
								OFFSET -55.150291 0.000000 0.000000
								CHANNELS 3 Xrotation Yrotation Zrotation
								JOINT mixamorig:RightHandMiddle1
								{
									OFFSET -23.317566 0.000000 0.000000
									CHANNELS 3 Xrotation Yrotation Zrotation
									JOINT mixamorig:RightHandMiddle2
									{
										OFFSET -6.378403 0.000000 0.000000
										CHANNELS 3 Xrotation Yrotation Zrotation
										JOINT mixamorig:RightHandMiddle3
										{
											OFFSET -6.148193 0.000000 0.000000
											CHANNELS 3 Xrotation Yrotation Zrotation
											JOINT mixamorig:RightHandMiddle4
											{
												OFFSET -6.583389 0.000000 0.000000
												CHANNELS 3 Xrotation Yrotation Zrotation
												End Site
												{
													OFFSET 1.171692 6.395905 1.029786
												}
											}
										}
									}
								}
								JOINT mixamorig:RightHandThumb1
								{
									OFFSET -7.190521 -3.860474 5.435846
									CHANNELS 3 Xrotation Yrotation Zrotation
									JOINT mixamorig:RightHandThumb2
									{
										OFFSET -6.567429 -3.791718 3.791708
										CHANNELS 3 Xrotation Yrotation Zrotation
										JOINT mixamorig:RightHandThumb3
										{
											OFFSET -6.062469 -3.500153 3.500166
											CHANNELS 3 Xrotation Yrotation Zrotation
											JOINT mixamorig:RightHandThumb4
											{
												OFFSET -4.792618 -2.767029 2.767022
												CHANNELS 3 Xrotation Yrotation Zrotation
												End Site
												{
													OFFSET -0.100327 6.053253 1.276754
												}
											}
										}
									}
								}
								JOINT mixamorig:RightHandIndex1
								{
									OFFSET -23.048981 -0.310791 4.992554
									CHANNELS 3 Xrotation Yrotation Zrotation
									JOINT mixamorig:RightHandIndex2
									{
										OFFSET -6.227539 0.000000 0.000000
										CHANNELS 3 Xrotation Yrotation Zrotation
										JOINT mixamorig:RightHandIndex3
										{
											OFFSET -6.095047 0.000000 0.000000
											CHANNELS 3 Xrotation Yrotation Zrotation
											JOINT mixamorig:RightHandIndex4
											{
												OFFSET -5.484772 0.000000 0.000000
												CHANNELS 3 Xrotation Yrotation Zrotation
												End Site
												{
													OFFSET 1.420593 5.237305 0.797056
												}
											}
										}
									}
								}
								JOINT mixamorig:RightHandRing1
								{
									OFFSET -22.246323 0.020569 -3.963762
									CHANNELS 3 Xrotation Yrotation Zrotation
									JOINT mixamorig:RightHandRing2
									{
										OFFSET -6.322128 0.000000 0.000000
										CHANNELS 3 Xrotation Yrotation Zrotation
										JOINT mixamorig:RightHandRing3
										{
											OFFSET -5.900024 0.000000 0.000000
											CHANNELS 3 Xrotation Yrotation Zrotation
											JOINT mixamorig:RightHandRing4
											{
												OFFSET -6.518356 0.000000 0.000000
												CHANNELS 3 Xrotation Yrotation Zrotation
												End Site
												{
													OFFSET 1.636398 6.232697 0.982186
												}
											}
										}
									}
								}
								JOINT mixamorig:RightHandPinky1
								{
									OFFSET -20.411011 -0.303314 -8.561701
									CHANNELS 3 Xrotation Yrotation Zrotation
									JOINT mixamorig:RightHandPinky2
									{
										OFFSET -6.907349 0.000000 0.000000
										CHANNELS 3 Xrotation Yrotation Zrotation
										JOINT mixamorig:RightHandPinky3
										{
											OFFSET -4.623840 0.000000 0.000000
											CHANNELS 3 Xrotation Yrotation Zrotation
											JOINT mixamorig:RightHandPinky4
											{
												OFFSET -5.218353 0.000000 0.000000
												CHANNELS 3 Xrotation Yrotation Zrotation
												End Site
												{
													OFFSET 0.602097 5.118835 0.816273
												}
											}
										}
									}
								}
							}
						}
					}
				}
			}
		}
	}
	JOINT mixamorig:LeftUpLeg
	{
		OFFSET 18.168400 -13.561905 -0.039000
		CHANNELS 3 Xrotation Yrotation Zrotation
		JOINT mixamorig:LeftLeg
		{
			OFFSET 0.577358 -80.825211 -3.695000
			CHANNELS 3 Xrotation Yrotation Zrotation
			JOINT mixamorig:LeftFoot
			{
				OFFSET -0.577356 -83.370262 -6.520700
				CHANNELS 3 Xrotation Yrotation Zrotation
				JOINT mixamorig:LeftToeBase
				{
					OFFSET 0.750401 -20.798306 25.135401
					CHANNELS 3 Xrotation Yrotation Zrotation
					JOINT mixamorig:LeftToe_End
					{
						OFFSET -0.000500 0.001200 19.917799
						CHANNELS 3 Xrotation Yrotation Zrotation
						End Site
						{
							OFFSET 0.000000 19.917805 0.000000
						}
					}
				}
			}
		}
	}
	JOINT mixamorig:RightUpLeg
	{
		OFFSET -18.162500 -13.585098 -0.041000
		CHANNELS 3 Xrotation Yrotation Zrotation
		JOINT mixamorig:RightLeg
		{
			OFFSET -0.595024 -80.945297 -3.631900
			CHANNELS 3 Xrotation Yrotation Zrotation
			JOINT mixamorig:RightFoot
			{
				OFFSET 0.595024 -83.218193 -6.561200
				CHANNELS 3 Xrotation Yrotation Zrotation
				JOINT mixamorig:RightToeBase
				{
					OFFSET -0.753601 -20.807106 25.115000
					CHANNELS 3 Xrotation Yrotation Zrotation
					JOINT mixamorig:RightToe_End
					{
						OFFSET 0.000299 0.001700 19.918200
						CHANNELS 3 Xrotation Yrotation Zrotation
						End Site
						{
							OFFSET 0.000000 19.918203 0.000000
						}
					}
				}
			}
		}
	}
}
MOTION
Frames: 6
Frame Time: 0.033333
-0.755736 196.636887 0.286743 -6.040587 2.257265 -1.956195 -1.279109 0.167939 -0.071267 -2.554680 0.518799 -0.698145 -2.554683 0.518799 -0.698145 0.855900 -0.529229 2.789722 8.340062 -0.992089 -0.929972 -0.000000 0.000000 -0.000000 -0.000000 0.000000 -0.000000 -0.000000 0.000000 -0.000000 -3.954606 -5.471507 -3.978298 12.415786 -5.899296 -61.341840 -0.135895 -76.261323 -0.114684 -67.968934 -2.188291 -32.357943 -0.245321 2.699340 -16.735275 -0.257898 -1.499388 -18.675161 -0.000004 0.000003 -0.000003 0.000001 -0.000001 0.000003 -24.591232 -1.036541 16.533931 2.321137 6.714515 2.170929 0.000007 0.000005 -0.000008 0.000003 0.000002 -0.000002 -5.664529 4.279610 -12.626647 0.076823 0.357923 -18.728452 0.000007 0.000000 0.000003 -0.000001 -0.000001 0.000001 -0.075717 2.686370 -16.315828 -0.247670 -1.562996 -18.670158 0.000008 -0.000004 -0.000001 -0.000000 -0.000002 -0.000001 1.890378 3.745770 -2.652967 -0.331130 -2.169000 -18.609059 0.000007 -0.000012 0.000008 -0.000002 -0.000002 0.000001 -0.805606 2.913607 1.152452 -13.765313 12.214085 74.766584 -0.016898 45.833247 0.023379 -61.350118 27.987639 37.980524 -2.094209 0.783379 42.376392 -0.307478 0.929798 23.751235 0.000005 0.000002 0.000003 -0.000001 -0.000003 0.000001 -39.097348 -8.697676 18.256816 3.673778 -9.467208 -2.242939 -0.000005 0.000007 -0.000001 0.000001 -0.000001 0.000000 -0.714354 -0.489215 40.848165 0.396348 -1.654988 32.788726 -0.000005 -0.000008 0.000002 0.000001 0.000004 -0.000002 0.234952 -4.945500 37.900242 -0.779428 3.497276 29.148539 0.000007 0.000007 -0.000003 0.000000 0.000000 0.000000 2.371104 -10.708562 24.662037 -1.525038 8.172338 32.203563 0.000005 0.000007 0.000002 -0.000003 0.000001 -0.000001 -18.630777 -2.030071 13.343635 71.775405 -0.328977 -2.395932 1.501915 -2.665893 -19.559024 -2.961722 -0.031028 0.069213 0.000002 -0.000000 0.000000 -11.973504 -4.946016 3.631489 25.659518 -0.093696 0.957606 -8.068637 -8.333709 -3.780555 -0.012206 -0.109717 0.262095 0.000000 -0.000000 0.000000 
-0.690226 196.543655 5.224113 -6.040757 2.264094 -2.004854 -1.279162 0.158979 -0.022781 -2.554471 0.519331 -0.698127 -2.554474 0.519331 -0.698127 0.855874 -0.529240 2.789756 8.339979 -0.992080 -0.929954 0.000000 0.000000 -0.000000 0.000000 0.000000 -0.000000 0.000000 0.000000 -0.000000 -3.954542 -5.471525 -3.978280 14.532383 -4.908489 -61.181761 -0.165889 -79.531249 -0.141926 -67.928834 -1.968796 -31.425922 -0.245330 2.699348 -16.735277 -0.257917 -1.499382 -18.675168 -0.000003 0.000001 -0.000005 0.000001 0.000002 -0.000000 -24.591241 -1.036544 16.533935 2.321136 6.714521 2.170926 0.000003 0.000010 -0.000010 -0.000001 -0.000001 -0.000000 -5.664551 4.279605 -12.626636 0.076815 0.357925 -18.728450 0.000005 0.000001 0.000002 -0.000003 -0.000003 0.000001 -0.075725 2.686374 -16.315826 -0.247687 -1.562981 -18.670145 0.000004 -0.000008 -0.000002 -0.000001 -0.000002 0.000001 1.890365 3.745776 -2.652962 -0.331110 -2.169009 -18.609064 0.000008 -0.000012 0.000007 -0.000003 -0.000002 0.000003 -0.805551 2.913602 1.152468 -9.215823 11.008133 73.875845 -0.028281 52.689985 0.026386 -60.740299 27.596218 38.307280 -2.094185 0.783378 42.376403 -0.307477 0.929805 23.751228 0.000006 -0.000001 -0.000001 0.000001 0.000004 -0.000000 -39.097338 -8.697675 18.256828 3.673781 -9.467222 -2.242936 -0.000004 0.000003 -0.000002 -0.000001 0.000001 -0.000002 -0.714334 -0.489228 40.848175 0.396368 -1.654969 32.788743 -0.000001 -0.000006 0.000002 0.000002 0.000001 0.000001 0.234971 -4.945508 37.900265 -0.779426 3.497314 29.148539 0.000006 0.000010 -0.000003 -0.000001 0.000001 0.000001 2.371113 -10.708559 24.662046 -1.525029 8.172344 32.203553 0.000002 0.000005 0.000003 -0.000002 -0.000001 0.000001 -21.491199 -1.969197 12.852638 73.492357 -0.431827 -2.446536 2.581140 -2.291231 -18.701063 -2.961734 -0.031027 0.069216 0.000002 0.000000 0.000000 -10.878613 -4.896704 3.800051 26.017183 -0.081198 0.973879 -9.520902 -8.323469 -3.821742 -0.012204 -0.109719 0.262094 0.000000 -0.000000 0.000000 
-2.441676 198.653961 8.269901 -5.663706 2.255487 -1.634958 -1.304287 0.352721 -0.038987 -2.602385 0.846204 -0.648312 -2.602390 0.846207 -0.648312 0.939069 -0.591506 2.697452 7.709838 -1.028914 -2.693115 0.000000 0.000000 0.000000 0.000000 0.000000 0.000000 0.000000 0.000000 0.000000 -3.955955 -5.314997 -3.900694 13.916406 -4.905242 -61.398442 -0.134910 -77.212242 -0.109444 -67.672456 -1.983285 -34.287153 -0.245328 2.699358 -16.735427 -0.257913 -1.499399 -18.675453 -0.000004 -0.000000 0.000001 0.000001 -0.000002 0.000002 -24.591232 -1.036540 16.533933 2.321121 6.714526 2.170920 0.000002 0.000007 -0.000009 0.000001 0.000002 -0.000001 -5.664501 4.279632 -12.626974 0.076812 0.357930 -18.728640 0.000005 -0.000002 0.000003 -0.000001 0.000001 0.000001 -0.075741 2.686331 -16.315947 -0.247685 -1.563002 -18.670481 0.000007 0.000001 0.000000 -0.000002 0.000001 0.000003 1.890309 3.745715 -2.653276 -0.331105 -2.169049 -18.609272 0.000009 -0.000008 0.000008 0.000002 -0.000000 0.000001 -0.897759 3.164044 1.769279 -8.869060 11.786977 72.962963 -0.026514 51.311492 0.024986 -62.253739 29.043228 42.265194 -2.094205 0.783370 42.376406 -0.307439 0.929821 23.751235 0.000010 -0.000002 0.000000 0.000002 0.000001 0.000000 -39.097324 -8.697662 18.256834 3.673778 -9.467202 -2.242918 -0.000006 0.000004 -0.000002 0.000000 -0.000001 -0.000002 -0.714338 -0.489214 40.848182 0.396345 -1.654987 32.788730 -0.000001 -0.000006 0.000001 0.000002 0.000000 -0.000001 0.234960 -4.945505 37.900252 -0.779427 3.497297 29.148543 0.000006 0.000014 -0.000003 -0.000002 0.000002 0.000000 2.371113 -10.708544 24.662036 -1.525057 8.172336 32.203563 0.000007 0.000014 0.000002 0.000000 0.000001 -0.000001 -23.506946 0.862186 13.092525 66.409144 -0.322409 -2.260458 -4.929624 -1.862904 -20.298853 -2.948247 -0.031219 0.069174 -0.000002 0.000000 0.000001 -6.529666 -5.725231 4.150658 19.076548 -0.097637 0.668400 -7.372884 -7.490181 -4.122941 0.731785 -0.111417 0.264124 -0.000000 -0.000001 0.000000 
-2.654327 198.983780 11.425615 -5.532358 2.577281 -1.576275 -1.318046 0.412718 -0.043200 -2.629354 0.931102 -0.635849 -2.629350 0.931100 -0.635850 0.856068 -0.625411 2.559661 7.548905 -1.138398 -3.282998 0.000000 0.000000 0.000000 0.000000 0.000000 0.000000 0.000000 0.000000 0.000000 -3.972050 -5.265865 -3.676139 12.660901 -5.618097 -61.766125 -0.117258 -75.774733 -0.089397 -67.171898 -1.515681 -34.705766 -0.245293 2.699317 -16.735830 -0.257943 -1.499480 -18.676288 -0.000003 -0.000000 -0.000002 -0.000001 -0.000000 0.000002 -24.591234 -1.036547 16.533943 2.321135 6.714521 2.170925 0.000006 0.000007 -0.000010 -0.000001 0.000002 -0.000001 -5.664409 4.279741 -12.627947 0.076811 0.357931 -18.729203 0.000008 -0.000001 -0.000001 -0.000003 -0.000001 -0.000001 -0.075767 2.686292 -16.316333 -0.247708 -1.563074 -18.671400 0.000007 -0.000005 0.000002 -0.000003 -0.000000 -0.000005 1.890132 3.745575 -2.654181 -0.331099 -2.169095 -18.609865 0.000010 -0.000010 0.000006 -0.000001 0.000003 -0.000000 -0.916208 3.214312 1.884578 -10.592665 11.691348 72.831461 -0.024599 48.144364 0.022487 -63.730323 28.985076 45.783035 -2.094206 0.783388 42.376386 -0.307448 0.929809 23.751233 0.000007 -0.000002 0.000002 0.000001 -0.000001 0.000003 -39.097348 -8.697660 18.256816 3.673779 -9.467217 -2.242916 -0.000007 0.000004 -0.000002 -0.000002 0.000002 0.000001 -0.714353 -0.489208 40.848172 0.396349 -1.654972 32.788736 -0.000002 -0.000004 0.000003 0.000003 0.000001 -0.000001 0.234967 -4.945500 37.900265 -0.779453 3.497283 29.148546 0.000006 0.000010 -0.000003 -0.000001 0.000001 0.000000 2.371091 -10.708548 24.662017 -1.525037 8.172329 32.203567 0.000004 0.000006 0.000002 -0.000001 -0.000001 0.000000 -26.110480 2.180369 12.115416 61.385963 -0.352814 -2.127183 -6.199195 0.517625 -18.327313 -3.048352 -0.031123 0.069404 0.000000 0.000002 -0.000000 -4.552673 -6.036678 4.185980 17.390478 -0.077678 0.597659 -7.707408 -7.494615 -3.989155 1.282315 -0.113135 0.077500 0.000000 -0.000001 -0.000000 
-2.713682 198.961212 14.951761 -5.389307 2.966491 -1.566843 -1.328733 0.456565 -0.057592 -2.650882 0.984321 -0.601387 -2.650878 0.984319 -0.601386 0.590967 -0.644331 2.357297 7.540641 -1.207525 -3.719716 0.000001 0.000000 0.000000 0.000001 0.000000 0.000000 0.000001 0.000000 0.000000 -3.991308 -5.191236 -3.400547 10.428427 -6.800189 -62.367093 -0.095446 -72.952048 -0.065148 -66.818696 -1.191946 -35.504894 -0.245294 2.699249 -16.736509 -0.257976 -1.499588 -18.677649 -0.000002 0.000002 -0.000001 0.000002 0.000001 -0.000001 -24.591217 -1.036558 16.533940 2.321118 6.714507 2.170924 0.000011 0.000006 -0.000008 0.000000 0.000001 -0.000001 -5.664265 4.279932 -12.629554 0.076805 0.357962 -18.730122 0.000006 -0.000000 0.000000 0.000001 -0.000001 -0.000001 -0.075829 2.686236 -16.316982 -0.247746 -1.563197 -18.672921 0.000007 -0.000003 -0.000006 -0.000000 -0.000002 -0.000003 1.889835 3.745353 -2.655666 -0.331082 -2.169206 -18.610865 0.000008 -0.000008 0.000010 -0.000002 -0.000001 -0.000003 -0.913873 3.206278 1.878323 -12.454273 11.782855 73.013978 -0.021706 44.864214 0.018345 -64.911509 29.491725 47.095210 -2.094191 0.783381 42.376382 -0.307462 0.929830 23.751232 0.000006 -0.000002 -0.000001 0.000000 0.000003 -0.000001 -39.097345 -8.697659 18.256804 3.673773 -9.467216 -2.242925 -0.000007 0.000012 -0.000001 -0.000002 0.000000 0.000001 -0.714351 -0.489221 40.848158 0.396357 -1.654972 32.788733 -0.000001 -0.000003 0.000002 0.000001 -0.000001 0.000002 0.234961 -4.945492 37.900255 -0.779437 3.497284 29.148529 0.000007 0.000012 0.000000 -0.000001 0.000000 0.000000 2.371101 -10.708561 24.662013 -1.525053 8.172339 32.203556 0.000006 0.000011 0.000002 -0.000001 0.000002 -0.000000 -27.260499 3.268727 10.746359 53.634720 -0.303207 -1.897847 -7.163058 3.321321 -17.039147 -3.143553 -0.031252 0.069617 0.000000 0.000001 0.000001 -2.783253 -6.422937 4.249904 16.415911 -0.061684 0.562567 -8.180714 -7.399357 -3.820382 0.171776 -0.114185 0.004824 -0.000000 -0.000000 0.000000 
-2.639975 198.680176 19.149839 -5.203039 3.230735 -1.563709 -1.356164 0.489665 -0.069595 -2.706470 1.026580 -0.535097 -2.706474 1.026581 -0.535099 0.215313 -0.634087 2.089483 7.541563 -1.098691 -4.308726 0.000000 -0.000000 0.000000 0.000000 -0.000000 0.000000 0.000000 -0.000000 0.000000 -4.008936 -5.091860 -3.147268 8.677514 -7.565754 -63.017306 -0.081972 -70.506226 -0.049332 -66.596858 -0.980277 -36.513860 -0.245286 2.699190 -16.737442 -0.258042 -1.499733 -18.679498 -0.000006 0.000001 -0.000002 0.000003 0.000000 0.000000 -24.591234 -1.036554 16.533931 2.321128 6.714492 2.170931 0.000007 0.000009 -0.000011 -0.000001 0.000002 -0.000001 -5.664057 4.280173 -12.631743 0.076813 0.357973 -18.731399 0.000007 -0.000004 0.000006 -0.000003 -0.000001 -0.000001 -0.075945 2.686194 -16.317858 -0.247767 -1.563379 -18.674985 0.000009 -0.000006 -0.000001 -0.000001 0.000001 0.000005 1.889424 3.745056 -2.657709 -0.331058 -2.169369 -18.612209 0.000006 -0.000013 0.000012 0.000000 0.000002 0.000004 -0.897533 3.156766 1.789476 -14.042328 11.966350 73.275123 -0.019945 41.925105 0.014999 -66.103349 29.728453 47.988025 -2.094214 0.783367 42.376386 -0.307451 0.929815 23.751225 0.000006 0.000000 0.000002 -0.000001 0.000000 -0.000001 -39.097372 -8.697661 18.256807 3.673785 -9.467227 -2.242913 -0.000002 0.000007 -0.000001 -0.000003 0.000001 0.000002 -0.714352 -0.489231 40.848172 0.396355 -1.654965 32.788743 -0.000001 -0.000007 0.000003 0.000001 0.000000 0.000001 0.234956 -4.945495 37.900255 -0.779442 3.497276 29.148536 0.000002 0.000008 -0.000001 0.000000 -0.000001 -0.000000 2.371088 -10.708574 24.662015 -1.525042 8.172353 32.203553 0.000006 0.000012 0.000003 0.000002 -0.000002 0.000001 -26.302922 4.147242 9.031108 42.418818 -0.177313 -1.532491 -7.664694 6.518402 -16.395382 -3.171073 -0.031325 0.069682 -0.000000 0.000003 -0.000000 -1.033409 -6.672258 4.332339 16.017089 -0.053631 0.533612 -9.258570 -7.336718 -3.635868 -0.822217 -0.114556 0.003962 0.000000 -0.000001 0.000000 
